<?xml version="1.0" encoding="utf-8"?>
<!-- Generator: Adobe Illustrator 16.0.0, SVG Export Plug-In . SVG Version: 6.00 Build 0)  -->
<!DOCTYPE svg PUBLIC "-//W3C//DTD SVG 1.1//EN" "http://www.w3.org/Graphics/SVG/1.1/DTD/svg11.dtd">
<svg version="1.1" id="Layer_1" xmlns="http://www.w3.org/2000/svg" xmlns:xlink="http://www.w3.org/1999/xlink" x="0px" y="0px"
	 width="32px" height="32px" viewBox="0 0 32 32" enable-background="new 0 0 32 32" xml:space="preserve">
<g>
	<path d="M21,32V14.598c0,0,0.885-4.183-14.249,1.711C6.724,16.382,6.89,0.149,6.89,0.149L12,0.12v10.399c0,0,13-5.455,13,4.136
		C25,24.249,25,32,25,32H21L21,32z"/>
	<path d="M23.322,6c0,0-5.188,0-5.245,0c1.886-3,3.596-6,3.596-6h5.425C27.098,0,26.169,3,23.322,6L23.322,6z"/>
	<polygon points="6,32.04 6,22.091 10.974,27.065 6,32.04 	"/>
</g>
</svg>
